<svg width="260" height="260" viewBox="0 0 260 260" fill="none" xmlns="http://www.w3.org/2000/svg">
<circle cx="130" cy="130" r="130" fill="#FFD600"/>
<circle cx="129.998" cy="130" r="118.182" fill="#C9A900"/>
<g clip-path="url(#clip0_113_14)">
<path d="M81.8964 140.249L123.606 179.189C125.337 180.804 127.623 181.705 130 181.705C132.378 181.705 134.663 180.804 136.394 179.189L178.104 140.249C185.121 133.716 189.091 124.553 189.091 114.974V113.635C189.091 97.5001 177.434 83.743 161.531 81.0886C151.005 79.3343 140.295 82.7736 132.77 90.2984L130 93.0683L127.23 90.2984C119.705 82.7736 108.995 79.3343 98.4695 81.0886C82.5658 83.743 70.9092 97.5001 70.9092 113.635V114.974C70.9092 124.553 74.8793 133.716 81.8964 140.249Z" fill="#FFD600"/>
</g>
<defs>
<clipPath id="clip0_113_14">
<rect width="118.182" height="118.182" fill="white" transform="translate(70.9092 70.9092)"/>
</clipPath>
</defs>
</svg>
